<svg xmlns="http://www.w3.org/2000/svg" viewBox="0 0 785 200"><defs><style>.a{fill:#fefefe;}.b{fill:#292f33;}.c{fill:#f5f5f5;}.d{fill:#d92f47;}.e{fill:#2c3135;}.f{fill:#473d43;}.g{fill:#e6596f;}.h{fill:#f1ebed;}.i{fill:#1e060a;}.j{fill:#f4f4f4;}.k{fill:#da2f47;}</style></defs><title>LogoBotonDesplegado</title><rect class="a" y="2.6" width="785" height="194.88" rx="97.4"/><path d="M79.8,124.8C60.6,109.4,55,80.1,66.8,57.5a53.4,53.4,0,0,1,62.9-26.7c23.7,7,39.9,31.3,37.8,56.5-2.8,33.6-31.5,55.3-65,49.1a28.3,28.3,0,0,0-2.9-.2C91.1,135.8,84.3,132.3,79.8,124.8Z"/><path class="b" d="M79.8,124.8c5.7,5.4,12.8,8.4,19.8,11.4-5.3,9.5-10.7,19-16.1,28.4-3.7,6.4-9.7,8.5-15.5,5.5s-7-9.2-3.3-15.9,8.6-15.3,12.9-22.9C78.7,129.3,80.5,127.5,79.8,124.8Z"/><path class="a" d="M75.4,67.5c6.3-18.4,25.2-29.7,45-26.9s35,20.4,35.7,41.2a42.9,42.9,0,0,1-38,44.2c-20.8,2.2-41-13-45.2-34.1a26.3,26.3,0,0,1-.2-5.6,3.1,3.1,0,0,1,1.8-.9c4.3.3,8.4.9,7.5,7.2,2.3-5.6,6.2-8.3,11.9-5.9s2.5,5.4,1,8.5c-6.4,5.6-6.5,6,.2,11.3,4.4,3.6,9,6.9,14.6,8.5,18.7,5.4,35.2-7,35.5-26.5,0-4-1.7-7.9-.5-11.9.8-1.7,2.6-2.4,4.2-3.8-1.9-1.8-4.6-1.6-6.6-2.9a15.1,15.1,0,0,1-2.8-2.2c-7.4-6.6-12.4-6.7-20-.4-1.5,1.2-2.5,2.8-4.2,3.7-8-.2-8-.2-10.3-6.9-1.8,5.4-5.3,7-10,6.6s-4.5-2.1-4.4-6.3c-3.5,6.8-8.4,7.4-14.1,5.7C75.5,69.5,74.8,68.8,75.4,67.5Z"/><path class="c" d="M75.4,67.5l1.7,1.7c.7,1.9,2.5,2,4.1,2.4s5,.7,5,3.9S85,81.6,81.8,83s-5.4,1.6-7.8,3.2H72.7A27.3,27.3,0,0,1,75.4,67.5Z"/><path class="d" d="M145.6,76.8c.4,4.5,1.3,8.9,1.2,13.4-.6,20.1-19.7,33-38.7,26.3-6.2-2.1-11.3-5.9-16.1-10.3-7.2-6.7-7.2-6.7,1.8-11a3.1,3.1,0,0,0,3.5-1.9c1.6-4.6,4.4-7.5,9.6-8,2.2-.1,1.6-1.8,1-3.2-.1-3.3,1.8-5.9,3.4-8.6a9,9,0,0,1,3.5-2.9c8.8-12.1,19.3-12.7,27.8-1.5A8.1,8.1,0,0,1,145.6,76.8Z"/><path class="e" d="M114.8,70.6c0,1.6-1,2.5-2.4,3.2s-3.6,1.2-5,2.4c-3,2.6-2.4,4.5,1.2,5.7,1.6.5,3.6.8,3.4,2.9s-2.2,2.4-3.8,2.3c-5.4-.4-8.1,1.8-9.2,7.2-.6,2.9-2.5,6.1-5.2.9-.2-2.7,4.4-6.1,0-7.9s-8.4-.6-9.3,5.4c-.3,2-.4,5.8-3.7,4.8s-1.4-4.2-.7-6.2c2.8-7.6-4.7-2.6-6.1-5.1s2.3-4.1,5-3.9,4.3-1.1,5-3.8,1.6-5.4-3.2-5c-2.8.3-6.3.5-3.7-4.3,5.2-.1,11.4,1.4,11.6-7,0-1.1,1.4-2,2.7-1.7A2.2,2.2,0,0,1,93,63.2c-.3,1.9-.6,3.7-1,5.6,5.1.4,10.5,2.1,11.3-5.6.1-1.5,1.1-3.5,3.3-2.6s1.8,2.1,1.3,3.6-.7,2.7-1.1,4.1C109.3,70,112.7,68.2,114.8,70.6Z"/><path class="f" d="M145.6,76.8c-2-2.2-2.6-4.9-3-7.7l9.5,2.5A14.7,14.7,0,0,1,145.6,76.8Z"/><path class="g" d="M122.5,86.3c8.5.1,9.2,1.4,6.4,9.2-1.4,3.8-3.9,6.4-6.7,9s-7.3,4.3-11.8,2.1-5.1-5.4-4.9-9.4,3.5-7.8,7.6-9.2S119.4,85.7,122.5,86.3Z"/><path class="h" d="M108.6,81.9c-1.9-.1-5.3,1.9-5.2-1.5s-.2-7.1,4.9-6.8l4.1.2Z"/><path class="i" d="M128.6,65.1c4.2.3,9.1-1.1,8.4,5.8a2.6,2.6,0,0,1-2.7,2.6c-1.5,0-2.6-1.4-2.3-2.2C133.3,67.9,129.1,67.8,128.6,65.1Z"/><path class="j" d="M92.5,82.1c-1.6-.3-4.7,1.3-4.1-2.5s1.7-7.1,6.6-6c1.7.4,4.9-1.4,4.4,2.4S98,83.6,92.5,82.1Z"/><path class="k" d="M215.4,117a20.4,20.4,0,0,1-8.3,1.5c-8.3,0-13.6-5.1-13.6-13.4a18.9,18.9,0,0,1,19.3-19.4,16.1,16.1,0,0,1,7,1.4l-1.6,4.5a13.6,13.6,0,0,0-6-1.2,12.3,12.3,0,0,0-8.1,3,14.7,14.7,0,0,0-4.6,11c0,5.4,2.7,9.4,9,9.4a15.9,15.9,0,0,0,6.4-1.2Z"/><path class="k" d="M242,104c0,7.8-5.5,14.5-13.3,14.5-5.8,0-9.4-4-9.4-9.5,0-7.8,5.5-14.5,13.3-14.5C238.8,94.5,242,98.9,242,104Zm-17,4.9c0,3.1,1.6,5.4,4.5,5.4s6.8-5.7,6.8-10.3c0-2.3-1.1-5.3-4.4-5.3S225,104.6,225,108.9Z"/><path class="k" d="M244.4,118l3-15.9c.5-2.7.8-5.1,1.1-7.1h4.9l-.5,4.1h.1a9.8,9.8,0,0,1,8.3-4.6c3.3,0,5.8,2,5.8,6.3a25.8,25.8,0,0,1-.4,3.8L264.2,118h-5.5l2.4-13a11.8,11.8,0,0,0,.3-2.7c0-2-.7-3.3-2.9-3.3s-5.7,3-6.7,8.4L249.9,118Z"/><path class="k" d="M270.9,112.9a13.3,13.3,0,0,0,5.5,1.5c2.2,0,3.5-1.3,3.5-2.8s-.7-2.4-3-3.6-4.5-3.3-4.5-6c0-4.4,3.9-7.5,9.3-7.5a11.3,11.3,0,0,1,5.4,1.2l-1.4,3.9a10.4,10.4,0,0,0-4.3-1c-2.1,0-3.5,1.1-3.5,2.6s1,2.3,3,3.2,4.8,3.3,4.8,6.2c0,5.1-4.3,7.9-9.8,7.9a12.6,12.6,0,0,1-6.4-1.7Z"/><path class="k" d="M312.8,95l-3,15.9c-.5,2.7-.8,5.1-1.1,7.1h-4.9l.5-4h-.1c-2.2,2.9-5.1,4.5-8,4.5s-6-1.8-6-6.5a21.7,21.7,0,0,1,.5-4.1L293.2,95h5.4l-2.3,12.6a12,12,0,0,0-.4,3.1c0,1.9.7,3.3,2.9,3.3s5.5-3,6.4-7.8L307.3,95Z"/><path class="k" d="M314.8,118l6.3-33.5h5.5L320.2,118Z"/><path class="k" d="M338.1,89.1l-1,5.9h5.1l-.8,4.3h-5.2l-1.8,9.2a19.8,19.8,0,0,0-.4,3.3,1.8,1.8,0,0,0,2,2h1.9l-.5,4.3a12.3,12.3,0,0,1-3.6.4c-3.8,0-5.4-2-5.4-4.7a17.5,17.5,0,0,1,.5-4.2l1.9-10.2h-3l.8-4.3h3l.9-4.3Z"/><path class="k" d="M357.3,118c0-1.4.2-3.2.4-5.2h-.1c-2.2,4.2-5.3,5.7-8.2,5.7s-6.8-3.2-6.8-7.8c0-7.9,5.5-16.2,16.2-16.2a27.2,27.2,0,0,1,6.9,1l-2.4,12a57.3,57.3,0,0,0-.9,10.5Zm2.3-19a7.1,7.1,0,0,0-2.3-.3c-5.1,0-9,5.7-9,11,0,2.4.9,4.4,3.3,4.4s5.7-3.2,6.8-9.1Z"/><path class="k" d="M367.8,118l2.7-14.2c.6-3.2.9-6.8,1.2-8.8h4.7a39.1,39.1,0,0,1-.5,4.8h.2c1.5-3,4-5.3,7.1-5.3h1.3l-1.1,5.4h-1.1c-3.9,0-6.4,3.9-7.3,8.8l-1.7,9.3Z"/><path class="k" d="M404.6,84.5l-2.9,13.9h.1a9.2,9.2,0,0,1,7.5-3.9c4.9,0,7,4,7,8.1,0,7.3-5,15.9-14.8,15.9-4.8,0-7.7-2-7.7-6.2a16.7,16.7,0,0,1,.5-3.9L399,84.5Zm-4.9,24.1a11.9,11.9,0,0,0-.2,2.8,2.7,2.7,0,0,0,3,2.9c4.8,0,8-6.2,8-10.7,0-2.5-1.1-4.6-3.6-4.6s-5.8,2.9-6.7,7.5Z"/><path class="k" d="M442.3,95l-3,15.9c-.5,2.7-.9,5.1-1.2,7.1h-4.9l.6-4h-.1c-2.3,2.9-5.1,4.5-8,4.5s-6-1.8-6-6.5a15.8,15.8,0,0,1,.5-4.1L422.6,95h5.5l-2.4,12.6a18,18,0,0,0-.3,3.1c0,1.9.7,3.3,2.9,3.3s5.5-3,6.4-7.8L436.8,95Zm-1.9-9.8-6.2,7h-4.1l4.5-7Z"/><path class="k" d="M444.8,112.9a13.3,13.3,0,0,0,5.5,1.5c2.2,0,3.5-1.3,3.5-2.8s-.7-2.4-3-3.6-4.5-3.3-4.5-6c0-4.4,3.9-7.5,9.3-7.5a11.3,11.3,0,0,1,5.4,1.2l-1.4,3.9a10.4,10.4,0,0,0-4.3-1c-2.1,0-3.5,1.1-3.5,2.6s1,2.3,3,3.2,4.8,3.3,4.8,6.2c0,5.1-4.3,7.9-9.8,7.9a12.6,12.6,0,0,1-6.4-1.7Z"/><path class="k" d="M475.1,127.3l2.8-13h-.1a8.9,8.9,0,0,1-7.4,4.2c-4.4,0-7-3.6-7-8.5,0-7.5,5.3-15.5,15.2-15.5a23.8,23.8,0,0,1,7.9,1.4l-5.9,31.4Zm5.3-27.9a6,6,0,0,0-3.1-.6c-4.6,0-8.2,5.3-8.2,10.5,0,3.1,1.3,4.8,3.3,4.8s5.9-3.3,6.7-7.7Z"/><path class="k" d="M512.4,95l-3,15.9c-.5,2.7-.8,5.1-1.1,7.1h-4.9l.5-4h-.1c-2.2,2.9-5.1,4.5-8,4.5s-6-1.8-6-6.5a21.7,21.7,0,0,1,.5-4.1L492.8,95h5.4l-2.3,12.6a12,12,0,0,0-.4,3.1c0,1.9.7,3.3,2.9,3.3s5.5-3,6.4-7.8L506.9,95Z"/><path class="k" d="M532.4,116.7a20,20,0,0,1-8.1,1.8c-6.4,0-9.5-3.9-9.5-9.5s5.1-14.5,13.1-14.5c4.5,0,7.4,2.6,7.4,6.5,0,5.8-6.2,7.7-15.1,7.5a6.6,6.6,0,0,0,.6,3.3,5.1,5.1,0,0,0,4.7,2.4,13.4,13.4,0,0,0,6.4-1.6Zm-5.3-18.1c-3.4,0-5.7,3.1-6.3,5.8,5.6.1,9.3-.7,9.3-3.4S528.9,98.6,527.1,98.6Z"/><path class="k" d="M562.9,84.5l-4.8,25.3c-.5,2.7-.9,5.7-1.1,8.2h-5l.5-4.1h-.1c-2.1,3.1-4.9,4.6-7.9,4.6s-7-3.3-7-8.5c0-8.1,5.9-15.5,14.4-15.5a10.3,10.3,0,0,1,3.5.6l2-10.6Zm-8.3,15.1a5.5,5.5,0,0,0-3.2-.9c-4.7,0-8.2,5.3-8.2,10.4,0,2.8,1.1,5,3.7,5s5.4-2.7,6.3-7.5Z"/><path class="k" d="M577.9,118c0-1.4.2-3.2.4-5.2h-.1c-2.3,4.2-5.4,5.7-8.3,5.7s-6.8-3.2-6.8-7.8c0-7.9,5.5-16.2,16.2-16.2a28,28,0,0,1,7,1l-2.4,12a50.2,50.2,0,0,0-1,10.5Zm2.2-19a7.1,7.1,0,0,0-2.3-.3c-5,0-9,5.7-9,11,0,2.4.9,4.4,3.3,4.4s5.7-3.2,6.8-9.1Z"/><path class="k" d="M588.8,112.9a13.3,13.3,0,0,0,5.5,1.5c2.2,0,3.5-1.3,3.5-2.8s-.7-2.4-3-3.6-4.5-3.3-4.5-6c0-4.4,3.9-7.5,9.3-7.5a11.3,11.3,0,0,1,5.4,1.2l-1.4,3.9a10.4,10.4,0,0,0-4.3-1c-2.1,0-3.5,1.1-3.5,2.6s1,2.3,3,3.2,4.8,3.3,4.8,6.2c0,5.1-4.3,7.9-9.8,7.9a12.6,12.6,0,0,1-6.4-1.7Z"/><path class="k" d="M613.6,127.3l4.6-23.8c.4-2.7,1-6.3,1.3-8.6h4.9l-.5,3.9h.1a9.8,9.8,0,0,1,7.8-4.3c5,0,7.2,4,7.2,8.5,0,8-5.5,15.5-13.3,15.5a9.5,9.5,0,0,1-4.6-1H621l-1.9,9.8Zm8.3-14.2a5.8,5.8,0,0,0,3.6,1.2c4.3,0,7.8-5.7,7.8-10.9,0-2.1-.9-4.4-3.7-4.4s-5.8,3.1-6.8,8.5Z"/><path class="k" d="M641.3,118l2.7-14.2c.6-3.2.9-6.8,1.2-8.8h4.7c-.1,1.6-.3,3.2-.5,4.8h.1c1.6-3,4.1-5.3,7.2-5.3h1.2l-1,5.4h-1.1c-3.9,0-6.4,3.9-7.3,8.8l-1.7,9.3Z"/><path class="k" d="M675.5,116.7a19.6,19.6,0,0,1-8.1,1.8c-6.4,0-9.5-3.9-9.5-9.5S663,94.5,671,94.5c4.5,0,7.4,2.6,7.4,6.5,0,5.8-6.2,7.7-15.1,7.5a6.6,6.6,0,0,0,.6,3.3,5.1,5.1,0,0,0,4.7,2.4,13.4,13.4,0,0,0,6.4-1.6Zm-5.3-18.1c-3.4,0-5.7,3.1-6.3,5.8,5.6.1,9.3-.7,9.3-3.4S672,98.6,670.2,98.6Z"/><path class="k" d="M687,95l1.5,11.4c.3,2.8.5,4.5.7,6h.1c.6-1.4,1.2-3.1,2.5-5.8L697.5,95h6.1l-12.8,23h-5.5l-3.9-23Z"/><path class="k" d="M703,118l4.4-23h5.4l-4.3,23Zm5.2-29.2a3.2,3.2,0,0,1,3.3-3.3,2.7,2.7,0,0,1,2.9,2.9,3.2,3.2,0,0,1-3.4,3.3A2.7,2.7,0,0,1,708.2,88.8Z"/><path class="k" d="M729.9,118c0-1.4.2-3.2.3-5.2h-.1c-2.2,4.2-5.3,5.7-8.2,5.7s-6.8-3.2-6.8-7.8c0-7.9,5.5-16.2,16.2-16.2a28,28,0,0,1,7,1l-2.4,12a50.2,50.2,0,0,0-1,10.5Zm2.2-19a7.1,7.1,0,0,0-2.3-.3c-5,0-9,5.7-9,11,0,2.4.9,4.4,3.3,4.4s5.7-3.2,6.8-9.1Z"/><path class="k" d="M740.8,112.9a12.9,12.9,0,0,0,5.5,1.5c2.2,0,3.5-1.3,3.5-2.8s-.7-2.4-3-3.6-4.5-3.3-4.5-6c0-4.4,3.8-7.5,9.3-7.5a10.9,10.9,0,0,1,5.3,1.2l-1.3,3.9a10.4,10.4,0,0,0-4.3-1c-2.1,0-3.5,1.1-3.5,2.6s1,2.3,3,3.2,4.7,3.3,4.7,6.2c0,5.1-4.2,7.9-9.7,7.9a13.3,13.3,0,0,1-6.5-1.7Z"/></svg>