<svg xmlns="http://www.w3.org/2000/svg" viewBox="0 0 200 200"><defs><style>.a{fill:#fefefe;}.b{fill:#292f33;}.c{fill:#f5f5f5;}.d{fill:#d92f47;}.e{fill:#2c3135;}.f{fill:#473d43;}.g{fill:#e6596f;}.h{fill:#f1ebed;}.i{fill:#1e060a;}.j{fill:#f4f4f4;}</style></defs><title>LogoBoton</title><circle class="a" cx="100" cy="100" r="98.3"/><path d="M66.3,124.3C47.5,109.2,42,80.5,53.6,58.3a52.6,52.6,0,0,1,61.7-26.2c23.1,6.9,39.1,30.7,37,55.5-2.8,32.9-30.9,54.2-63.8,48.1a24.5,24.5,0,0,0-2.7-.2C77.4,135.1,70.7,131.7,66.3,124.3Z"/><path class="b" d="M66.3,124.3c5.6,5.3,12.5,8.3,19.5,11.2-5.3,9.3-10.5,18.6-15.9,27.8-3.6,6.3-9.5,8.4-15.1,5.4s-6.9-9-3.3-15.6l12.7-22.4C65.3,128.7,67,126.9,66.3,124.3Z"/><path class="a" d="M62,68.2C68.1,50.1,86.7,39,106.1,41.8s34.3,20,35.1,40.3c.8,21.9-15.7,41.1-37.3,43.4S63.7,112.7,59.5,92.1a34.7,34.7,0,0,1-.1-5.6,2.8,2.8,0,0,1,1.7-.9c4.2.4,8.2,1,7.3,7.2,2.3-5.5,6.2-8.2,11.7-5.8s2.5,5.3,1,8.3c-6.3,5.4-6.3,5.9.2,11.1,4.3,3.5,8.8,6.7,14.3,8.3,18.3,5.3,34.5-6.9,34.8-25.9.1-4-1.6-7.8-.5-11.8.8-1.6,2.6-2.3,4.2-3.7-1.9-1.7-4.6-1.6-6.5-2.8a19.3,19.3,0,0,1-2.8-2.2c-7.2-6.4-12.2-6.5-19.6-.4-1.4,1.2-2.4,2.8-4.1,3.7-7.8-.2-7.8-.2-10.1-6.7-1.7,5.2-5.1,6.8-9.8,6.4-3.2-.3-4.4-2.1-4.3-6.2-3.4,6.7-8.3,7.2-13.9,5.6C62.1,70.1,61.4,69.4,62,68.2Z"/><path class="c" d="M62,68.2l1.7,1.6c.7,1.9,2.4,1.9,4,2.3s4.9.8,4.9,3.9-1.2,5.9-4.3,7.3-5.3,1.6-7.6,3.2H59.4A26.5,26.5,0,0,1,62,68.2Z"/><path class="d" d="M130.9,77.2c.4,4.4,1.2,8.8,1.1,13.2-.5,19.7-19.3,32.4-37.9,25.8-6.1-2.1-11.2-5.8-15.8-10.1-7.1-6.5-7.1-6.6,1.8-10.9a2.8,2.8,0,0,0,3.4-1.8c1.6-4.5,4.3-7.4,9.4-7.8,2.1-.1,1.6-1.8,1-3.1-.2-3.3,1.8-5.8,3.3-8.5a11.9,11.9,0,0,1,3.4-2.9c8.6-11.8,18.9-12.3,27.3-1.4A8.3,8.3,0,0,1,130.9,77.2Z"/><path class="e" d="M100.6,71.1a3.5,3.5,0,0,1-2.3,3.2c-1.7.7-3.5,1.2-4.9,2.4-3,2.5-2.4,4.4,1.1,5.6,1.6.4,3.5.7,3.4,2.8s-2.2,2.4-3.7,2.3c-5.3-.4-8,1.7-9,7-.6,2.8-2.5,6-5.1.8-.2-2.6,4.3-5.9-.1-7.6s-8.2-.6-9.1,5.2c-.2,2-.3,5.7-3.6,4.7s-1.3-4.1-.7-6c2.7-7.5-4.6-2.6-5.9-5s2.2-4.1,4.9-3.9,4.1-1,4.8-3.6,1.6-5.4-3.1-4.9c-2.8.2-6.2.4-3.6-4.3,5.1-.1,11.1,1.4,11.4-6.9,0-1.1,1.4-1.9,2.6-1.6A2.2,2.2,0,0,1,79.3,64c-.3,1.8-.7,3.5-1,5.4,5,.4,10.3,2.1,11-5.5.2-1.4,1.1-3.4,3.3-2.5s1.8,2,1.3,3.5-.8,2.6-1.1,4C95.3,70.5,98.5,68.8,100.6,71.1Z"/><path class="f" d="M130.9,77.2c-2-2.1-2.7-4.7-3-7.5l9.3,2.4A13.8,13.8,0,0,1,130.9,77.2Z"/><path class="g" d="M108.1,86.6c8.4,0,9.1,1.4,6.4,9-1.4,3.7-3.9,6.3-6.6,8.8s-7.1,4.2-11.5,2.1-5.1-5.3-4.9-9.3,3.5-7.6,7.5-9S105.2,86,108.1,86.6Z"/><path class="h" d="M94.5,82.3c-1.9-.2-5.1,1.8-5.1-1.5s-.1-7,4.8-6.7l4.1.2Z"/><path class="i" d="M114.1,65.8c4.2.3,9-1.1,8.3,5.7a2.6,2.6,0,0,1-2.7,2.5c-1.4,0-2.5-1.4-2.2-2.1C118.8,68.6,114.6,68.5,114.1,65.8Z"/><path class="j" d="M78.7,82.5c-1.5-.4-4.6,1.3-3.9-2.5s1.6-6.9,6.4-5.9c1.7.4,4.9-1.4,4.4,2.3S84.2,84,78.7,82.5Z"/></svg>