<svg id="Layer_1" data-name="Layer 1" xmlns="http://www.w3.org/2000/svg" xmlns:xlink="http://www.w3.org/1999/xlink" viewBox="0 0 1920 778"><defs><style>.cls-1{fill:none;}.cls-2{font-size:26.52px;}.cls-10,.cls-2,.cls-48{font-family:MyriadPro-Regular, Myriad Pro;}.cls-3{letter-spacing:-0.03em;}.cls-4{letter-spacing:0em;}.cls-5{letter-spacing:0em;}.cls-6{letter-spacing:0.01em;}.cls-7{letter-spacing:-0.01em;}.cls-8{letter-spacing:0em;}.cls-48,.cls-9{fill:#da2f47;}.cls-10{font-size:15.91px;}.cls-10,.cls-16,.cls-43{fill:#fff;}.cls-11{letter-spacing:-0.03em;}.cls-12{letter-spacing:0em;}.cls-13{letter-spacing:-0.04em;}.cls-14{letter-spacing:0em;}.cls-15{letter-spacing:-0.01em;}.cls-16{stroke:#da2f47;stroke-miterlimit:10;stroke-width:1.3px;}.cls-17{letter-spacing:0.28em;}.cls-18{letter-spacing:1.59em;}.cls-19{letter-spacing:1.57em;}.cls-20{letter-spacing:1.57em;}.cls-21{letter-spacing:-0.01em;}.cls-22{letter-spacing:0em;}.cls-23{letter-spacing:-0.01em;}.cls-24{letter-spacing:-0.04em;}.cls-25{letter-spacing:-0.04em;}.cls-26{letter-spacing:0.01em;}.cls-27{letter-spacing:0.02em;}.cls-28{letter-spacing:0em;}.cls-29{letter-spacing:-0.01em;}.cls-30{letter-spacing:-0.01em;}.cls-31{letter-spacing:0.01em;}.cls-32{letter-spacing:-0.03em;}.cls-33{clip-path:url(#clip-path);}.cls-34{fill:#6ee4ff;}.cls-35{fill:#8de260;}.cls-36{fill:#eff2f4;}.cls-37{fill:#e2e2e2;}.cls-38{fill:#e3e4e5;}.cls-39{fill:#c5c7c9;}.cls-40{fill:#f7d2ad;}.cls-41{fill:#f7eded;}.cls-42{fill:#0b3aaf;}.cls-44{fill:#ff8500;}.cls-45{fill:red;}.cls-46{fill:#9422d6;}.cls-47{fill:#f9bd00;}.cls-48{font-size:41.11px;}.cls-49,.cls-52{letter-spacing:-0.01em;}.cls-50{letter-spacing:-0.01em;}.cls-51,.cls-58{letter-spacing:0em;}.cls-52,.cls-53,.cls-54,.cls-55,.cls-56,.cls-57,.cls-58,.cls-63{font-family:MyriadPro-Bold, Myriad Pro;font-weight:700;}.cls-54{letter-spacing:0em;}.cls-55{letter-spacing:-0.04em;}.cls-56{letter-spacing:-0.05em;}.cls-57{letter-spacing:-0.01em;}.cls-59{letter-spacing:-0.01em;}.cls-60{letter-spacing:0em;}.cls-61{letter-spacing:-0.01em;}.cls-62{letter-spacing:0em;}.cls-63{font-size:37px;}.cls-64{letter-spacing:-0.05em;}.cls-65{letter-spacing:-0.02em;}.cls-66{letter-spacing:-0.01em;}.cls-67{letter-spacing:0em;}.cls-68{letter-spacing:0em;}.cls-69{letter-spacing:-0.04em;}.cls-70{letter-spacing:-0.05em;}.cls-71{letter-spacing:-0.01em;}.cls-72{letter-spacing:0em;}</style><clipPath id="clip-path"><rect class="cls-1" x="1140.6" y="63.9" width="660.5" height="461.46"/></clipPath></defs><title>Analisis</title><text class="cls-2" transform="translate(24.1 362.4) scale(0.95 1)"><tspan class="cls-3">P</tspan><tspan class="cls-4" x="13.4" y="0">alab</tspan><tspan class="cls-5" x="60.3" y="0">r</tspan><tspan x="68.9" y="0">as ocupadas en los </tspan><tspan class="cls-6" x="281.1" y="0">t</tspan><tspan class="cls-7" x="290.2" y="0">w</tspan><tspan class="cls-8" x="309.4" y="0">eets</tspan></text><rect class="cls-9" x="24.2" y="386.2" width="108.8" height="41.11" rx="20.1"/><rect class="cls-9" x="177.3" y="386.2" width="108.8" height="41.11" rx="20.1"/><rect class="cls-9" x="321.6" y="386.2" width="108.8" height="41.11" rx="20.1"/><rect class="cls-9" x="465.8" y="386.2" width="108.8" height="41.11" rx="20.1"/><rect class="cls-9" x="610" y="386.2" width="108.8" height="41.11" rx="20.1"/><text class="cls-10" transform="translate(46.9 410.7) scale(0.95 1)"><tspan class="cls-11">P</tspan><tspan x="8.1" y="0">alab</tspan><tspan class="cls-12" x="36.2" y="0">r</tspan><tspan x="41.3" y="0">a 1</tspan></text><text class="cls-10" transform="translate(201.1 411.1) scale(0.95 1)"><tspan class="cls-11">P</tspan><tspan x="8.1" y="0">alab</tspan><tspan class="cls-12" x="36.2" y="0">r</tspan><tspan x="41.3" y="0">a 2</tspan></text><text class="cls-10" transform="translate(345.3 411.3) scale(0.95 1)"><tspan class="cls-11">P</tspan><tspan x="8.1" y="0">alab</tspan><tspan class="cls-12" x="36.2" y="0">r</tspan><tspan x="41.3" y="0">a 3</tspan></text><text class="cls-10" transform="translate(493.4 411.3) scale(0.95 1)"><tspan class="cls-11">P</tspan><tspan x="8.1" y="0">alab</tspan><tspan class="cls-12" x="36.2" y="0">r</tspan><tspan x="41.3" y="0">a 4</tspan></text><text class="cls-10" transform="translate(638.9 411.3) scale(0.95 1)"><tspan class="cls-11">P</tspan><tspan x="8.1" y="0">alab</tspan><tspan class="cls-12" x="36.2" y="0">r</tspan><tspan x="41.3" y="0">a 5</tspan></text><text class="cls-2" transform="translate(24.7 478.6) scale(0.95 1)"><tspan class="cls-13">T</tspan><tspan class="cls-7" x="12.1" y="0">w</tspan><tspan x="31.4" y="0">eets viole</tspan><tspan class="cls-14" x="135.9" y="0">n</tspan><tspan class="cls-15" x="150.5" y="0">t</tspan><tspan class="cls-8" x="159.1" y="0">os</tspan></text><rect class="cls-16" x="24.2" y="500.2" width="870.5" height="50.39" rx="24.6"/><text class="cls-2" transform="translate(25.1 588.2) scale(0.95 1)">0%<tspan class="cls-17" x="34.6" y="0">	</tspan><tspan class="cls-18" x="47.7" y="0">	</tspan><tspan x="95.5" y="0">10%</tspan><tspan class="cls-19" x="143.7" y="0">	</tspan><tspan x="190.9" y="0">20%</tspan><tspan class="cls-20" x="239.2" y="0">	</tspan><tspan x="286.4" y="0">30%</tspan><tspan class="cls-19" x="334.6" y="0">	</tspan><tspan x="381.9" y="0">50%</tspan><tspan class="cls-20" x="430.1" y="0">	</tspan><tspan x="477.4" y="0">60%</tspan><tspan class="cls-20" x="525.6" y="0">	</tspan><tspan x="572.8" y="0">70%</tspan><tspan class="cls-19" x="621.1" y="0">	</tspan><tspan x="668.3" y="0">80%</tspan><tspan class="cls-20" x="716.5" y="0">	</tspan><tspan x="763.8" y="0">90%</tspan><tspan class="cls-19" x="812" y="0">	</tspan><tspan x="859.3" y="0">100%</tspan></text><rect class="cls-9" x="24.2" y="500.2" width="614.9" height="50.39" rx="24.6"/><text class="cls-2" transform="translate(24 35.2) scale(0.95 1)">D<tspan class="cls-14" x="17.7" y="0">a</tspan><tspan class="cls-15" x="30.3" y="0">t</tspan><tspan class="cls-8" x="39" y="0">os de la cue</tspan><tspan class="cls-14" x="168" y="0">n</tspan><tspan x="182.6" y="0">ta</tspan></text><rect class="cls-16" x="27.4" y="56.6" width="862.9" height="261.23" rx="15.5"/><text class="cls-2" transform="translate(51.6 107.7) scale(0.95 1)"><tspan class="cls-21">U</tspan><tspan x="17" y="0">sua</tspan><tspan class="cls-22" x="54.9" y="0">r</tspan><tspan x="63.7" y="0">io: </tspan><tspan class="cls-23" x="95.6" y="0">C</tspan><tspan class="cls-4" x="110.7" y="0">a</tspan><tspan class="cls-22" x="123.5" y="0">r</tspan><tspan x="132.3" y="0">los</tspan><tspan class="cls-24" x="163.6" y="0"> </tspan><tspan class="cls-25" x="168.2" y="0">T</tspan><tspan class="cls-4" x="180.2" y="0">ule </tspan><tspan class="cls-21" x="219.9" y="0">U</tspan><tspan x="236.9" y="0">scanga</tspan><tspan class="cls-26" x="0" y="63.6">N</tspan><tspan x="17.7" y="63.6">ic</tspan><tspan class="cls-27" x="35.8" y="63.6">k</tspan><tspan x="48.7" y="63.6">name: _ca</tspan><tspan class="cls-28" x="160.6" y="63.6">r</tspan><tspan x="169.4" y="63.6">lostule</tspan><tspan class="cls-29" x="0" y="127.3">L</tspan><tspan x="12.1" y="127.3">uga</tspan><tspan class="cls-6" x="54.3" y="127.3">r</tspan><tspan class="cls-4" x="63.3" y="127.3">: </tspan><tspan class="cls-30" x="74.4" y="127.3">C</tspan><tspan class="cls-8" x="89.5" y="127.3">oacal</tspan><tspan class="cls-21" x="147.7" y="127.3">c</tspan><tspan x="159.4" y="127.3">o</tspan></text><text class="cls-2" transform="translate(470.9 107.4) scale(0.95 1)"><tspan class="cls-31">S</tspan><tspan x="13.2" y="0">eguido</tspan><tspan class="cls-7" x="91.7" y="0">r</tspan><tspan class="cls-8" x="100.1" y="0">es: 40</tspan><tspan class="cls-32"><tspan x="0" y="63.6">F</tspan><tspan class="cls-8" x="12.1" y="63.6">echa inicio: 16/09/2010</tspan></tspan></text><g class="cls-33"><path class="cls-34" d="M1651.1,62.4h10.6s36.4,54.9,79.4,91.9c46.1,34.5,127.5,46.3,127.5,46.3v13.5s-86.9-8.5-137.9-50.9S1651.1,62.4,1651.1,62.4Z"/><path class="cls-35" d="M1635,62.4h16.1l35.8,52.8,43.6,46.8,102.4,44,35.7,8.1v20.1l-36-4.6-96.7-.8-5.3-6.4-22.7-63.7Z"/><path class="cls-35" d="M1558.2,271l8.5-4.7,10.3,13.6,5.5,8.5,102.9-100.1,8,9.8-12.3,14.7s12.2,11.2,13.1,15.2-93.1,87.5-93.1,87.5-3.9,2-8.2-2S1558.2,271,1558.2,271Z"/><path class="cls-35" d="M1573.6,469.1s-16.7-29.8-19.6-36.5a17,17,0,0,1,0-12.9l35.5-40.5,2.7-10,7.7-.8S1714.3,256.7,1714.8,257s15.8-1.7,15.8-1.7l-1.3,44.8-12.9-.2s-4-.7-4.1,2.5-.5,12.1-.5,12.1-.7,4.4-1.9,5.5-5.9-.1-6.1,3.3,2.9,5.2,2.9,5.2v6.4h126.1V350l-85.5-1v29.8c0,.4.4,4.7-3.3,6.2s-7.4-2.3-7.4-2.3l-9.9-25.8-73.4,29.6,4,12.8s-18.6,8.1-22,10.6-7.1,18.2-9.1,20.2-29.2,5.4-29.2,5.4l79.1,115.9-14.8,7.2.2-7.2-60.1-98.8Z"/><path class="cls-36" d="M1597.5,86.9h58.9s53.8,70,53,71.8,21.2,63.7,21.2,63.7-53.7-64.6-56-67.7-10.1-4.3-15.5-1.2-83.1,82.4-83.1,82.4L1521,271l-49.5-54.6,97.8-95.5c.5-.5-1.3-6.7-1.3-6.7Z"/><path class="cls-36" d="M1438.7,376l38.9-37.3s62,67.8,63,70.4,1.8,5.6,0,7.3L1504,450.6Z"/><path class="cls-36" d="M1529.9,290l5-4.6,23.3-14.4s33.3,36.1,36.8,40.1,8.6,1.2,8.6,1.2l84.2-78s4.6-2.9,1.2-6.6-7.7-8.3-9.3-10.4,0-6.1,0-6.1l13.5-12.6,31.8,38-126.4,122s-2.4,4.2-6.3,1.7S1529.9,290,1529.9,290Z"/><path class="cls-36" d="M1566.7,266.3c.4-.1,10.3,13.6,10.3,13.6s.8,7.3,3.8,9.1,5.9-1.7,5.9-1.7l98.7-99-15.5-17.8Z"/><path class="cls-36" d="M1554,432.6c.3.1-6.4-14.2-6.4-14.2l2.3-7.3-2.3-6.8-64.4-70.9,40.4-37.6,61,68.4c4.7,5.3,8.3,5,8.3,5l-1.7,10.4s-35.4,38.4-36.5,41.4S1554,432.6,1554,432.6Z"/><path class="cls-36" d="M1676.2,551.4l-80.1-116.2s26.6-2.6,29.3-6,8.4-20.9,8.4-20.9l22.8-9.3s-5.5-13.4-4.9-13.4,75.3-30.5,75.5-30,9.5,27.1,9.5,27.1,2.9,2.9,6.7,2.5a4.1,4.1,0,0,0,3.8-4.1l.2-32.1,85.5,1v36.1s-68.9-.3-89.9,2.9-83.1,32.6-83.1,32.6l-7.4-11.7c-1.6-2.6-9.9-2.2-10.8,1.6s1.7,4.8,1.7,4.8l3.9-.6L1702.5,538Z"/><path class="cls-36" d="M1663.3,428.7c.6.1,22.9,52.8,22.9,52.8s54.6-22.9,58.9-25,32.3-6.4,37.1-6.4l50.7.4V394.3s-63.5-3-90.3,2.9S1663.3,428.7,1663.3,428.7Z"/><path class="cls-36" d="M1718.8,306.8s-.7,8-.7,11-2.8,7.4-4.5,8.1l-6.9,2.6v6.4h126.1V306.8Z"/><polygon class="cls-36" points="1730.6 255.3 1743.2 255.3 1746.4 258.1 1832.9 258.1 1832.9 299.9 1728.6 300.1 1730.6 255.3"/><path class="cls-36" d="M1688.3,485.9l20.5,48.4,38-14.9,38.9-7.6,43.6-1.5V455.6H1780l-31.9,4.7Z"/><rect class="cls-36" x="1837" y="343.5" width="31.6" height="167.06"/><polygon class="cls-36" points="1837 259.2 1837 338.8 1868.6 338.8 1868.6 261.7 1837 259.2"/><polygon class="cls-36" points="1723.5 248.3 1733.9 248.3 1728.6 242.7 1723.5 248.3"/><polygon class="cls-36" points="1746.2 242.7 1749.6 246.3 1830 247 1830 242.7 1746.2 242.7"/><polygon class="cls-36" points="1838.1 242.7 1838.1 247 1868.6 248.3 1838.1 242.7"/><polygon class="cls-36" points="1773.1 62.4 1821.8 62.4 1868.6 70.3 1868.6 183 1857.1 175.5 1773.1 62.4"/><path class="cls-36" d="M1630.7,574.8l30.7-16.2c.8-.4.1-8.3.1-8.3L1602,451.6l-28.4,17.5Z"/><path class="cls-36" d="M1436.6,379.7s63.6,73.9,63.4,73.5-38.6,37-38.6,37l-63.6-72Z"/><path class="cls-36" d="M1466.7,496.1l77.1-73.1,18.7,42.7-36.3,30.4-33.3,18.4-5.1,3.3-4.6,8.6v3.1l-1.3,3.4-18-27.7s-1.6-4.2,0-5.9Z"/><polygon class="cls-36" points="1483.2 536.1 1497 561.5 1544.2 533.8 1585.8 508.8 1564 469.2 1529.1 498.2 1491.9 519.1 1486.4 527.6 1487.2 531.2 1483.2 536.1"/><polygon class="cls-36" points="1542.9 545 1577 607.2 1624.2 579.5 1588.7 515.4 1542.9 545"/><polygon class="cls-36" points="1501.2 568.5 1535.8 548.5 1570.4 611.4 1535.2 632.8 1501.2 568.5"/><path class="cls-36" d="M1359.6,453.4l32.8-29.4,64.3,73.1-1.4,6.4.4,5.3,10.5,15-47.9,32.3Z"/><polygon class="cls-36" points="1339.2 359.7 1424.2 278.4 1462.3 328.7 1370.7 418 1365.2 418 1339.2 359.7"/><path class="cls-36" d="M1470.4,211.7l95.5-94.8,3.3.7L1599.4,89l57-2.1L1635,62.4H1443s8.4,27.7,9.8,31,4.5,7.7-.1,9.9-7.2-6.5-7.2-6.5l-11.1-34.4h-40.3l-19.7,12,37.4,64.6Z"/><path class="cls-37" d="M1635,62.4H1517c-32.4,27.6-64.6,55.7-95.8,86.8l-.8.4,50,62.1s93.6-93.3,94.8-94.2,4,.1,4,.1L1599.4,89l57-2.1Z"/><polygon class="cls-36" points="1425.2 275.7 1466 323.1 1515.6 277.3 1473.5 229.5 1425.2 275.7"/><path class="cls-36" d="M1383.3,224.2l33.4,39.8s48.7-46.3,48.3-46.3-33.3-39.7-33.3-39.7Z"/><path class="cls-38" d="M1661.7,62.4l101.8.6,69.4,92.9,20.5,27.1,15.2,8.7v8.9l-35.7-7.1s-63.3-10.3-98.2-42.8S1661.7,62.4,1661.7,62.4Z"/><polygon class="cls-36" points="1335.8 271 1382 227 1414.6 266.7 1356.9 322.2 1335.8 271"/><polygon class="cls-36" points="1383.3 214.1 1427.2 172.2 1403.7 140.4 1368.9 79 1315.6 113.5 1332.5 134.5 1339.7 142.5 1344.3 169 1361 196.7 1365 197.6 1383.3 214.1"/><polygon class="cls-36" points="1247.6 157 1310.3 117.4 1333.9 145.6 1337.4 170.9 1355.8 201.9 1355.8 206.5 1373.2 224.4 1310.4 283.9 1303.9 293.6 1290.7 299.2 1247.6 157"/><path class="cls-36" d="M1367.5,62.5c.2,0,3.9,5.6,3.9,5.6l11.9-5.7Z"/><polygon class="cls-36" points="1308 62.4 1359.6 62.4 1364.5 72.3 1325 97.4 1308 62.4"/><path class="cls-36" d="M1300.4,62.5l19.3,38.2-27.8,18.6-20.5-39.4s-2.3-5.5,0-6.6l20.3-10.8Z"/><path class="cls-36" d="M1217.9,62.4l27.6,86.8,40.6-26L1263.7,79s-2.6-7.9,1.3-9.8l13.6-6.8Z"/><path class="cls-36" d="M1292.3,303.1l12-4.9,1.9,8s50.5,109.7,49.8,109.9-13.8-12.8-13.8-12.8l-12.6-26.2s-28.8-52.5-29.4-52.7S1292.3,303.1,1292.3,303.1Z"/><path class="cls-36" d="M1333.7,273.2l20.7,51.5-20.7,19.8-21.4-45.3s-2.5-5,0-7.2Z"/><polygon class="cls-36" points="1420.7 559.5 1445.8 600.4 1493.7 571.7 1468.9 527.4 1420.7 559.5"/><polygon class="cls-36" points="1447.6 603.3 1480.7 664.3 1528.8 636.6 1495 574.8 1447.6 603.3"/><polygon class="cls-36" points="1348.8 425.1 1351.9 437 1360.8 430.3 1348.8 425.1"/><path class="cls-39" d="M1507.3,463.2l15.4,17.6s27.9-27.6,28.3-27.6-16.1-17.6-16.1-17.6Z"/><polygon class="cls-39" points="1456.8 247.7 1471.5 233.9 1490.2 255.2 1476 268.9 1456.8 247.7"/><polygon class="cls-39" points="1587 111.1 1597.5 121.6 1614 103.9 1603.3 93.4 1587 111.1"/><polygon class="cls-39" points="1632.4 294 1640.3 303.1 1651.1 293.1 1642.9 284 1632.4 294"/><rect class="cls-39" x="1789.4" y="310.5" width="8.9" height="21.41"/><path class="cls-39" d="M1628.7,445.4s13,31.4,13.4,31,23.8-10.4,23.8-10.4l-13.8-31.9Z"/><path class="cls-39" d="M1468.2,186.9l6.5,6.8,10.2-10.7-7.2-7.4Z"/><path class="cls-39" d="M1368.5,338.9c.5,0,55.7-52.2,55.7-52.2l14.5,17-54.6,53.6Z"/><polygon class="cls-39" points="1368.5 249.4 1381.7 235.8 1395.6 250.5 1387.8 258.3 1384.9 255.4 1379.1 261.2 1368.5 249.4"/><polygon class="cls-39" points="1420.3 197.1 1433.3 185.1 1459.1 215 1446 227.6 1442.2 222.4 1444.7 220.5 1441.9 217 1443.8 215.8 1439.7 210.6 1441.4 209.2 1437.6 204.7 1435.1 207.1 1431.2 202 1429.3 204 1426.8 200.9 1425.2 202.6 1420.3 197.1"/><path class="cls-40" d="M1318.6,293.3c-.1-.5,0-3.7,1.6-4.8l14.2-9.7,11.3,27-17.4,8.8Z"/><polygon class="cls-39" points="1329.9 326.7 1333.9 337.5 1351.2 321.2 1346.6 310.3 1329.9 326.7"/><path class="cls-39" d="M1401.1,464.4,1414,456l15.3,24.8-14.1,8.3Z"/><polygon class="cls-40" points="1428.4 565.6 1440.5 558.6 1444.7 566.6 1456.1 559.9 1451.3 551.5 1464.6 544.4 1468.6 552.6 1465.2 553.9 1466.8 557.8 1470.8 555.5 1475.1 563.5 1468.2 567.5 1466.8 565.9 1449.5 574.6 1450.8 576.9 1444.7 579.9 1445.9 582.7 1440.1 585.5 1435.3 577.4 1433.1 579.1 1430.9 575 1433.4 573 1428.4 565.6"/><polygon class="cls-40" points="1478.6 641.4 1485.6 655.2 1518.7 636 1511.7 622 1492.4 632.7 1494.7 637.7 1485.2 643 1483.1 639.4 1478.6 641.4"/><path class="cls-40" d="M1636,536.5s8.9,16.5,8.9,16.8-11.2,5.7-11.2,5.7l-9.3-16.3,1.7-.9-1.7-3.1,5.4-3.1,1.9,3.5Z"/><polygon class="cls-39" points="1636 536.5 1643.3 532.3 1642.2 530.4 1646.5 528.1 1657.5 545.9 1652.2 549.1 1653 550.9 1650.1 552.4 1649.1 550.9 1644.9 553.3 1636 536.5"/><polygon class="cls-40" points="1725 500.3 1734.4 496.2 1742.7 515.5 1733.8 519.9 1725 500.3"/><polygon class="cls-40" points="1840.3 485.7 1840.3 506.7 1854 506.7 1854 490.5 1849.3 490.5 1849.3 485.7 1840.3 485.7"/><path class="cls-37" d="M1343.9,461.9c-.3-.9,48.1,91.6,48.1,91.6l65.2,110.8-27.9-57.1-55.4-96.1Z"/><polygon class="cls-37" points="1301.1 391.7 1312.5 387 1324.1 408.4 1335.8 442.1 1332.8 444.3 1301.1 391.7"/><polygon class="cls-37" points="1297.4 384.7 1308.3 378.3 1274.8 306.2 1226.7 146.6 1221.9 149.2 1270.3 307.6 1280.9 346.3 1297.4 384.7"/><polygon class="cls-37" points="1195.9 62.5 1215 126.1 1220.1 124.7 1197.8 62.4 1195.9 62.5"/><path class="cls-37" d="M1241.6,301.8l9.3-9,16.2,64.5,20.7,43.6L1232,428.4s-7.7,2.5-6.1,6.5,9.3,2.1,9.3,2.1l39.6-20.9-68.5,213.7s-6.3-4.3-10.4-3.7a23.1,23.1,0,0,0-8.2,3.7L1142,655.7s-3.5,3-2.4,5.8,7.7,0,7.7,0,41.9-23.8,45.9-26.2,10.7,1.1,10.7,1.1l-9.9,29.8h-82.6l21.3-81,29.5-57.3,21.7,50.3s2.2,5.6,5.6,3.7.3-6.2.3-6.2l-24.5-56.5,27.1-60.4s20.2,38.1,20,39,3.7,6.9,6.9,6.1-.8-8.9-.8-8.9l-23.4-46.5,36.1-109.8Z"/><path class="cls-37" d="M1282.5,411.5l7.7-3.9,28.3,48.4-17.4,13.9-16.2,11.5-6.9,22.2,23.1,8.1s4,2.2,5.6-1.4-4.3-5.8-4.3-5.8l-14.6-6.7,2.4-13.1,24.2-16.2,9.7-2.7,29.1,57.9-4.4,6.9-52.5,135.6h-30.5l27.6-67.6,25.1-71.2s4.6-6,0-7.9-5.7,4.5-5.7,4.5l-19.4,53.7-25-9.2s-4-1.9-5.3,1.1,3.2,5.2,3.2,5.2l23.4,10.7-25.5,69.7-7.7-4,5.3-14.8s1.8-6.1-1.1-6.6-4.2,3.6-4.2,3.6l-6.7,14.7-36.9-14.2,27.1-77.8,14.3,5.4s4.6,1,5.6-2.2-3.4-5.6-3.4-5.6l-13.8-5.2L1283,423Z"/><polygon class="cls-37" points="1211.5 640.2 1201.9 666.2 1258.2 666.2 1261.4 660.8 1211.5 640.2"/><path class="cls-37" d="M1304.1,666.2H1393l14.4-32.5,6.4-7.7-56.2-95.2Z"/><polygon class="cls-41" points="1401.3 666.2 1412.9 638.6 1418.3 632.8 1438.2 666.2 1401.3 666.2"/><polygon class="cls-37" points="1072.7 258.9 1208 158.6 1237.9 265.7 1208 371.4 1124.7 574.8 1099.2 666.2 1070 666.2 1072.7 258.9"/><path class="cls-37" d="M1176.5,62.5l23.1,73.9-38,28.1-12.7-17s1-2.9,0-3.8-22.7-32.1-22.7-32.1-6-21.3-6.6-22.6-2.7-2.2-2.7-2.2L1111,63.7l6.4-1.3Z"/><path class="cls-37" d="M1072.7,211l7.9,13.1,78.8-58.1-12.9-16.8a3.4,3.4,0,0,1-3.6-.6c-1.7-1.5-12.4-17.2-12.4-17.2l-34.8,26-23,17.3Z"/><polygon class="cls-37" points="1072.7 132.9 1072.7 166.2 1126.7 126.1 1122 118.8 1072.7 132.9"/><path class="cls-37" d="M1072.7,75.5l35.8-9.9,5.9,22.6s-1.4,1.6-1,3.1l5.9,21-46.6,12.6Z"/></g><path class="cls-42" d="M1205.4,339.7c0-13.7-10.1-24.9-22.6-24.9s-22.5,11.2-22.5,24.9a26.5,26.5,0,0,0,3.7,13.5h-.1l18.8,36.4,18.2-35.1A26.7,26.7,0,0,0,1205.4,339.7Z"/><path class="cls-43" d="M1182.8,322.7c8.5,0,15.5,7.6,15.5,17s-7,16.9-15.5,16.9-15.4-7.6-15.4-16.9S1174.3,322.7,1182.8,322.7Z"/><path class="cls-44" d="M1723.9,407.6c0-13.7-10.1-24.8-22.5-24.8s-22.6,11.1-22.6,24.8a26.9,26.9,0,0,0,3.7,13.6h-.1l18.8,36.4,18.2-35.2A26.2,26.2,0,0,0,1723.9,407.6Z"/><path class="cls-43" d="M1701.4,390.7c8.5,0,15.4,7.6,15.4,16.9s-6.9,17-15.4,17-15.5-7.6-15.5-17S1692.9,390.7,1701.4,390.7Z"/><path class="cls-45" d="M1323.7,157.4c0-13.7-10.1-24.9-22.6-24.9s-22.5,11.2-22.5,24.9a26.4,26.4,0,0,0,3.6,13.5h0l18.8,36.4,18.2-35.1A26.7,26.7,0,0,0,1323.7,157.4Z"/><path class="cls-43" d="M1301.1,140.4c8.5,0,15.4,7.6,15.4,17s-6.9,16.9-15.4,16.9-15.4-7.6-15.4-16.9S1292.6,140.4,1301.1,140.4Z"/><path class="cls-46" d="M1672.9,199.2c0-13.7-10.1-24.9-22.6-24.9s-22.5,11.2-22.5,24.9a26.7,26.7,0,0,0,3.6,13.5h0l18.8,36.4,18.2-35.1A26.7,26.7,0,0,0,1672.9,199.2Z"/><path class="cls-43" d="M1650.3,182.2c8.5,0,15.4,7.6,15.4,17s-6.9,16.9-15.4,16.9-15.4-7.6-15.4-16.9S1641.8,182.2,1650.3,182.2Z"/><path class="cls-47" d="M1504,310.1a44.7,44.7,0,0,0,8.7-26.7c0-24.3-18.7-43.9-41.9-43.9s-41.9,19.6-41.9,43.9a45,45,0,0,0,8.7,26.6l33.2,50.9Z"/><ellipse class="cls-43" cx="1470.8" cy="283.4" rx="32.3" ry="33.9"/><text class="cls-2" transform="translate(1141.2 34.7) scale(0.95 1)">Ubicación del usua<tspan class="cls-22" x="208.7" y="0">r</tspan><tspan x="217.5" y="0">io</tspan></text><text class="cls-48" transform="translate(24.4 668.2) scale(0.95 1)">El análisis que se <tspan class="cls-49" x="292" y="0">r</tspan><tspan x="305" y="0">eali</tspan><tspan class="cls-50" x="364.7" y="0">z</tspan><tspan x="382" y="0">ó al usua</tspan><tspan class="cls-51" x="532.9" y="0">r</tspan><tspan x="546.6" y="0">io </tspan><tspan class="cls-52" x="587.5" y="0">C</tspan><tspan class="cls-53" x="611.5" y="0">a</tspan><tspan class="cls-54" x="633.2" y="0">r</tspan><tspan class="cls-53" x="648.7" y="0">los</tspan><tspan class="cls-55" x="701.6" y="0"> </tspan><tspan class="cls-56" x="708.3" y="0">T</tspan><tspan class="cls-53" x="728.6" y="0">ule </tspan><tspan class="cls-57" x="793.8" y="0">U</tspan><tspan class="cls-53" x="821.3" y="0">s</tspan><tspan class="cls-58" x="839.2" y="0">c</tspan><tspan class="cls-53" x="857.9" y="0">anga</tspan><tspan x="949.4" y="0" xml:space="preserve"> p</tspan><tspan class="cls-59" x="981.5" y="0">r</tspan><tspan class="cls-60" x="994.6" y="0">edi</tspan><tspan class="cls-61" x="1048" y="0">c</tspan><tspan x="1066.1" y="0">e que tiene una posible </tspan><tspan class="cls-61" x="1474.7" y="0">t</tspan><tspan x="1488.1" y="0">endencia viole</tspan><tspan class="cls-62" x="1736.9" y="0">n</tspan><tspan x="1759.6" y="0">ta. </tspan></text><text class="cls-63" transform="translate(24 745.2) scale(0.95 1)"><tspan class="cls-64">T</tspan><tspan class="cls-65" x="18.4" y="0">w</tspan><tspan x="45.9" y="0">eets de </tspan><tspan class="cls-66" x="171.1" y="0">C</tspan><tspan x="192.8" y="0">a</tspan><tspan class="cls-67" x="212.3" y="0">r</tspan><tspan class="cls-68" x="226.3" y="0">los</tspan><tspan class="cls-69" x="273.8" y="0"> </tspan><tspan class="cls-70" x="279.9" y="0">T</tspan><tspan x="298.1" y="0">ule </tspan><tspan class="cls-71" x="356.9" y="0">U</tspan><tspan class="cls-68" x="381.7" y="0">s</tspan><tspan class="cls-72" x="397.7" y="0">c</tspan><tspan x="414.5" y="0">anga</tspan></text></svg>