<svg xmlns="http://www.w3.org/2000/svg" viewBox="0 0 719 385"><defs><style>.a,.e{fill:none;stroke:#292f33;stroke-linecap:round;stroke-miterlimit:10;}.a{stroke-width:58px;}.b{fill:#da2f47;}.c{fill:#292f33;}.d{fill:#e75a70;}.e{stroke-width:13px;}</style></defs><title>Logo</title><line class="a" x1="36" y1="355" x2="82" y2="275.9"/><path class="b" d="M232,130.7l18.7-12.8L224,110.1c-22.3-39.2-67.8-18.7-83.1,18.6C122.6,173.6,70,190,70,190c37.4,44.5,71.2,52.6,93.7,50.8s83.3-19.5,70.7-98.6c-.7-4.1-1.5-7.9-2.4-11.5Z"/><path class="c" d="M224,110.1a84.3,84.3,0,0,1,8,20.6l18.8-12.8L224,110.1Z"/><path class="d" d="M194.2,159.8s-62.5-12.9-69.6,21.8S175.1,236.6,194.2,159.8Z"/><path d="M211,107.4c-8.3-8.4-21.7-8.5-22.2-8.5a2.6,2.6,0,0,0-2.6,2.6,2.7,2.7,0,0,0,2.6,2.6,34.6,34.6,0,0,1,10.1,1.8,10.7,10.7,0,0,0-2.5,7.1c0,4.9,2.9,8.9,6.4,8.9s6.4-4,6.4-8.9a5.3,5.3,0,0,0-.1-1.3h.1a2.4,2.4,0,0,0,1.8-.7,2.5,2.5,0,0,0,0-3.6"/><line class="e" x1="57.6" y1="182.2" x2="84.6" y2="91"/><line class="e" x1="98.3" y1="182.3" x2="125.3" y2="91.1"/><line class="e" x1="48.2" y1="116.5" x2="143.4" y2="116.5"/><line class="e" x1="42.3" y1="151.8" x2="137.5" y2="151.8"/><path class="b" d="M279.6,219.9H261.2l2.9-14.5H316l-2.9,14.5H295l-16.9,88.6H262.6Z"/><path class="b" d="M325,234l-.7,37c-.5,9.2-.7,14.3-1.6,21h.5c2-6.4,3.8-11.9,7-19.7L346.3,234h12.1l.7,37.8a138.3,138.3,0,0,1-.7,20.2h.6c1.7-6.6,3.5-12.2,6.6-21.3L379.3,234h15.2L362,308.5H348.6l-1.4-33a177.2,177.2,0,0,1,.6-21.3h-.3a193.6,193.6,0,0,1-7.3,21.3l-14.1,33H312.5L309,234Z"/><path class="b" d="M433.7,305a44,44,0,0,1-19.8,4.5c-17.1,0-23.2-12.1-23.2-27.1,0-21.1,11.6-49.6,34.2-49.6,12.4,0,17.6,9.3,17.8,18.8,0,19.4-16.1,27.1-36.7,26.8-.2,2.1-.3,7.9,1.2,11.5a10.8,10.8,0,0,0,10.7,7.2c6.1,0,10.2-1.7,14.4-3.9Zm-10.9-59.5c-6.1,0-12.1,7.8-15.2,21,10.9.3,21.2-3.9,21.2-13.7C428.8,248.3,426.8,245.5,422.8,245.5Z"/><path class="b" d="M489.2,305a43.6,43.6,0,0,1-19.7,4.5c-17.2,0-23.3-12.1-23.3-27.1,0-21.1,11.6-49.6,34.3-49.6,12.4,0,17.6,9.3,17.7,18.8,0,19.4-16,27.1-36.7,26.8-.2,2.1-.3,7.9,1.2,11.5a10.8,10.8,0,0,0,10.7,7.2,28.1,28.1,0,0,0,14.4-3.9Zm-10.9-59.5c-6.1,0-12.1,7.8-15.1,21,10.8.3,21.1-3.9,21.1-13.7C484.3,248.3,482.3,245.5,478.3,245.5Z"/><path class="b" d="M520.1,205.4h15.6l-17.1,89.7h26.6l-2.6,13.4H500.5Z"/><path class="b" d="M606.1,258c0,21.5-11,51.8-33.8,51.8-16.6,0-20.7-13.7-20.7-25.6,0-22.8,12.4-51.4,34.9-51.4C603.5,232.8,606.1,247.8,606.1,258Zm-39,25.3c0,6.7.4,14.4,7.2,14.4,11,0,16.3-28.2,16.3-41.2,0-6.3-1.2-11.6-6.7-11.6C573.8,244.9,566.9,269.7,567.1,283.3Z"/><path class="b" d="M647.1,307.3a34.1,34.1,0,0,1-12.9,2.2c-15.7,0-21.8-12.7-21.8-26.7,0-24.5,14.8-49.8,38.7-49.8a23.3,23.3,0,0,1,8.4,1.3l-4,12.9a17.4,17.4,0,0,0-5.4-.9c-13.1,0-22.1,18-22.1,34.4,0,9.6,3.3,15.9,10.5,15.9a31.4,31.4,0,0,0,9.2-1.7Z"/><path class="b" d="M655.2,308.5l20-105.8h15.2l-11.9,62.7h.3c1.8-2.6,3.8-5.7,5.2-8.1L700,234h17l-24.5,32.2,12.6,42.3H689.3l-8.9-34.2-4.9,6.7-5.3,27.5Z"/><path d="M147.5,32A115.4,115.4,0,1,1,65.8,65.8,115.1,115.1,0,0,1,147.5,32m0-30A145.5,145.5,0,1,0,293,147.5,145.4,145.4,0,0,0,147.5,2Z"/></svg>