<svg id="Layer_1" data-name="Layer 1" xmlns="http://www.w3.org/2000/svg" viewBox="0 0 715 177"><defs><style>.cls-1{fill:#fff;}</style></defs><title>Tweelock</title><path class="cls-1" d="M28.9,31.5H0L4.6,8.7H86L81.4,31.5H53l-26.5,139H2.2Z"/><path class="cls-1" d="M100.1,53.6l-1.1,58c-.8,14.5-1.1,22.5-2.5,33h.8a326.4,326.4,0,0,1,10.9-30.9l25.3-60.1h19l1.1,59.3a223.5,223.5,0,0,1-1.1,31.7h.9c2.7-10.4,5.5-19.2,10.4-33.4l21.5-57.6h23.8l-51,116.9h-21l-2.2-51.8a286.6,286.6,0,0,1,.9-33.4h-.4a306.2,306.2,0,0,1-11.5,33.4l-22.1,51.8H80.5L75,53.6Z"/><path class="cls-1" d="M270.6,165a69.7,69.7,0,0,1-31.1,7c-26.8,0-36.4-18.9-36.4-42.5,0-33.1,18.2-77.8,53.7-77.8,19.4,0,27.6,14.6,27.9,29.5,0,30.4-25.2,42.5-57.6,42-.3,3.3-.4,12.4,1.9,18.1a17.1,17.1,0,0,0,16.8,11.3c9.6,0,16-2.7,22.6-6.1ZM253.5,71.6c-9.6,0-19,12.3-23.8,33,17.1.4,33.2-6.1,33.2-21.5,0-7.1-3.1-11.5-9.4-11.5Z"/><path class="cls-1" d="M357.7,165a68.9,68.9,0,0,1-30.9,7c-27,0-36.6-18.9-36.6-42.5,0-33.1,18.2-77.8,53.8-77.8,19.5,0,27.6,14.6,27.8,29.5,0,30.4-25.1,42.5-57.6,42-.3,3.3-.5,12.4,1.9,18.1a17.1,17.1,0,0,0,16.8,11.3,45.1,45.1,0,0,0,22.6-6.1ZM340.6,71.6c-9.6,0-19,12.3-23.7,33,16.9.4,33.1-6.1,33.1-21.5,0-7.1-3.2-11.5-9.4-11.5Z"/><path class="cls-1" d="M406.1,8.7h24.5L403.8,149.4h41.7l-4.1,21.1h-66Z"/><path class="cls-1" d="M541,91.2c0,33.8-17.2,81.3-53,81.3-26,0-32.5-21.5-32.5-40.2,0-35.7,19.5-80.6,54.8-80.6C537,51.7,541,75.2,541,91.2Zm-61.1,39.7c0,10.5.6,22.6,11.3,22.6,17.2,0,25.5-44.2,25.5-64.6,0-9.9-1.9-18.2-10.5-18.2C490.4,70.7,479.5,109.6,479.9,130.9Z"/><path class="cls-1" d="M605.4,168.6a54.2,54.2,0,0,1-20.3,3.4c-24.6,0-34.2-19.9-34.2-41.9,0-38.4,23.2-78.1,60.7-78.1a36.9,36.9,0,0,1,13.2,2.1l-6.3,20.2a26.9,26.9,0,0,0-8.4-1.4c-20.6,0-34.7,28.2-34.7,54,0,15,5.2,24.9,16.5,24.9a50.9,50.9,0,0,0,14.4-2.7Z"/><path class="cls-1" d="M618.1,170.5l31.3-166h23.9l-18.7,98.4h.5c2.8-4.1,5.9-9,8.1-12.8l25.1-36.5H715l-38.4,50.5,19.7,66.4H671.5l-13.9-53.7-7.7,10.5-8.3,43.2Z"/></svg>